Coordinates
version=1
nRows=19
nColumns=24
inDegrees=yes

Units are S.I. units (second, meters, Newtons, ...)
Angles are in degrees.

endheader
time	pelvis_tilt	pelvis_list	pelvis_rotation	pelvis_tx	pelvis_ty	pelvis_tz	hip_flexion_r	hip_adduction_r	hip_rotation_r	knee_angle_r	ankle_angle_r	subtalar_angle_r	mtp_angle_r	hip_flexion_l	hip_adduction_l	hip_rotation_l	knee_angle_l	ankle_angle_l	subtalar_angle_l	mtp_angle_l	lumbar_extension	lumbar_bending	lumbar_rotation
     13.00000000	     -8.69390976	      3.27280329	      7.53075936	     -0.86269222	      0.00089500	     -0.33604729	     29.86120962	     -9.96257867	    -10.75680794	    -61.96416275	    -12.34964604	      7.02823903	     38.45250519	      8.15655879	      8.70202382	     17.86282356	     -8.81409371	      0.78072951	     -6.58217879	      2.13499775	      6.43370834	     -5.97200986	     -3.16841512
     13.00500000	     -8.48763362	      3.11241181	      7.78243135	     -0.85752862	      0.00129658	     -0.33636450	     30.17787000	     -9.85840394	    -10.89397461	    -61.20521382	    -11.86089579	      7.03301519	     38.31973119	      7.41435019	      8.43619959	     18.04395339	     -8.44981509	      0.97850462	     -6.34695586	      2.24642853	      6.13578258	     -5.82134505	     -3.57706466
     13.01000000	     -8.34443862	      2.93669265	      7.99721086	     -0.85232862	      0.00155937	     -0.33661391	     30.55749556	     -9.71518454	    -10.97437510	    -60.39580704	    -11.39036466	      7.07172550	     38.18923265	      6.74383546	      8.14928693	     18.20517877	     -8.08358385	      1.18394983	     -6.15208339	      2.40887968	      5.92517203	     -5.65632020	     -3.91888486
     13.01500000	     -8.27749305	      2.76078339	      8.17503211	     -0.84709794	      0.00167506	     -0.33678919	     31.01635073	     -9.55088324	    -10.98958476	    -59.53698775	    -10.97424261	      7.12312756	     38.12847268	      6.15913768	      7.86432353	     18.35713573	     -7.72256527	      1.39046036	     -6.02153580	      2.53874551	      5.81418927	     -5.50258493	     -4.19619023
     13.02000000	     -8.04990471	      2.62394074	      8.41436060	     -0.84193755	      0.00190996	     -0.33701455	     31.25002633	     -9.44123557	    -11.06747689	    -58.61882480	    -10.46207574	      7.20398875	     37.93842179	      5.41349479	      7.60320594	     18.52315295	     -7.38389704	      1.56759276	     -5.83524826	      2.75620736	      5.49417580	     -5.36684612	     -4.59351453
     13.02500000	     -7.91130829	      2.47441673	      8.61455584	     -0.83671176	      0.00201761	     -0.33715131	     31.57229426	     -9.29475057	    -11.07418707	    -57.64889076	     -9.99970422	      7.33397195	     37.75579293	      4.76614967	      7.33202416	     18.69620440	     -7.05043419	      1.72171967	     -5.73218195	      2.92056328	      5.29516772	     -5.23187510	     -4.91069801
     13.03000000	     -7.87764448	      2.33668843	      8.75628019	     -0.83152286	      0.00190081	     -0.33717752	     32.02272903	     -9.12924175	    -10.98531207	    -56.65049300	     -9.57856304	      7.41142452	     37.68565050	      4.25917830	      7.09118458	     18.84553758	     -6.77368093	      1.92921297	     -5.71455847	      3.01025078	      5.20834274	     -5.12144344	     -5.16080330
     13.03500000	     -7.60788272	      2.22381479	      9.00850738	     -0.82632493	      0.00204502	     -0.33734971	     32.13319923	     -9.03708512	    -11.03689701	    -55.58121023	     -9.03358634	      7.64832743	     37.37612117	      3.48255029	      6.84561550	     19.11394603	     -6.47566721	      2.07573192	     -5.69947123	      3.10550567	      4.84755176	     -5.00456402	     -5.56883169
     13.04000000	     -7.46045598	      2.10185123	      9.19707949	     -0.82107508	      0.00200476	     -0.33741556	     32.38185570	     -8.90454907	    -10.99466194	    -54.47964039	     -8.53050158	      7.88766101	     37.03524941	      2.84587367	      6.60364376	     19.37320090	     -6.19822464	      2.23160300	     -5.77786726	      3.11239563	      4.64458200	     -4.89083829	     -5.87576673
     13.04500000	     -7.44653654	      1.97200936	      9.33883838	     -0.81588312	      0.00178217	     -0.33734139	     32.78059761	     -8.72988930	    -10.83663526	    -53.32420448	     -8.14262499	      8.05853092	     36.89217500	      2.40164781	      6.37790690	     19.55376258	     -6.00439400	      2.41660876	     -5.83799622	      3.11175988	      4.57775479	     -4.79191223	     -6.12550592
     13.05000000	     -7.19818877	      1.88176746	      9.58833644	     -0.81064722	      0.00178171	     -0.33742629	     32.84459705	     -8.65642212	    -10.85016633	    -52.12713034	     -7.55652180	      8.39100012	     36.42909484	      1.66773942	      6.15739120	     19.94552748	     -5.76874276	      2.57375924	     -6.01203420	      2.93528190	      4.24733850	     -4.70745837	     -6.51566853
     13.05500000	     -7.20981160	      1.74822582	      9.71332851	     -0.80545344	      0.00147275	     -0.33726844	     33.22840664	     -8.46447726	    -10.63666497	    -50.87944477	     -7.20647577	      8.59871721	     36.22118867	      1.27372658	      5.93216330	     20.13913616	     -5.61899046	      2.76888268	     -6.12658411	      2.86398193	      4.20790464	     -4.61105120	     -6.74810384
     13.06000000	     -6.94347378	      1.67168621	      9.96272787	     -0.80026902	      0.00143873	     -0.33727749	     33.22956638	     -8.39078504	    -10.60609234	    -49.61210817	     -6.58018266	      8.98620352	     35.46066360	      0.53619962	      5.71958411	     20.65185216	     -5.42815346	      2.93953791	     -6.43845424	      2.39400475	      3.83915615	     -4.54244649	     -7.16882001
     13.06500000	     -6.86734450	      1.56021231	     10.13936118	     -0.79500999	      0.00116785	     -0.33720981	     33.44228914	     -8.25903445	    -10.46543903	    -48.31887581	     -5.99275408	      9.34620716	     34.58556128	      0.02340193	      5.50429400	     21.08456009	     -5.28076528	      3.19814715	     -6.71944953	      1.75248447	      3.71172441	     -4.44818460	     -7.45085314
     13.07000000	     -6.82018587	      1.45016983	     10.30900708	     -0.78979960	      0.00084404	     -0.33706000	     33.66556837	     -8.12281023	    -10.28648358	    -46.96042878	     -5.53171101	      9.62923226	     33.99603228	     -0.42910367	      5.29139426	     21.40944964	     -5.17076389	      3.47776757	     -6.86508969	      1.28312920	      3.60208534	     -4.37292571	     -7.73161974
     13.07500000	     -6.90177110	      1.33397115	     10.41895361	     -0.78460108	      0.00034204	     -0.33681874	     34.02543940	     -7.95696748	     -9.98795555	    -45.53948193	     -5.25663701	      9.80233577	     33.82573286	     -0.71608267	      5.09626708	     21.55701085	     -5.08396008	      3.68632832	     -6.95309020	      1.22425074	      3.63906142	     -4.30337804	     -7.92860021
     13.08000000	     -6.76623849	      1.24180779	     10.56100997	     -0.77932896	      0.00005712	     -0.33665181	     34.09780920	     -7.81640457	     -9.77192837	    -44.14683173	     -4.59845552	     10.18387559	     32.54578493	     -1.30505852	      4.87630373	     22.02858716	     -4.92857896	      3.96003400	     -7.31511864	      0.29889265	      3.43543804	     -4.21880903	     -8.17886922
     13.08500000	     -6.86546332	      1.10519494	     10.72409072	     -0.77416145	     -0.00049719	     -0.33646201	     34.40706899	     -7.67422410	     -9.49264858	    -42.63577392	     -4.37354550	     10.31818066	     32.37114254	     -1.54947156	      4.66090252	     22.20847622	     -4.87201238	      4.19570508	     -7.33791472	      0.28803860	      3.48303453	     -4.13273255	     -8.43377756
     13.09000000	     -6.74952891	      0.94551490	     10.93003178	     -0.76893189	     -0.00080233	     -0.33629893	     34.41731678	     -7.50362833	     -9.32526258	    -41.07823194	     -4.02372295	     10.38964462	     31.58557932	     -2.05696958	      4.35954034	     22.52993442	     -4.75842796	      4.45162472	     -7.42041854	     -0.01741844	      3.30101474	     -3.99028949	     -8.77186054
